<svg width="406" height="420" viewBox="0 0 406 420" fill="none" xmlns="http://www.w3.org/2000/svg">
    <path opacity="0.2"
        d="M220 48L226.265 104.129C233.523 169.152 284.848 220.477 349.871 227.735L406 234L349.871 240.265C284.848 247.523 233.523 298.848 226.265 363.871L220 420L213.735 363.871C206.477 298.848 155.152 247.523 90.129 240.265L34 234L90.129 227.735C155.152 220.477 206.477 169.152 213.735 104.129L220 48Z"
        fill="white" />
    <path opacity="0.2"
        d="M70.5 0C74.6395 37.0865 103.913 66.3605 141 70.5C103.913 74.6395 74.6395 103.913 70.5 141C66.3605 103.913 37.0865 74.6395 0 70.5C37.0865 66.3605 66.3605 37.0865 70.5 0Z"
        fill="white" />
</svg>