<svg width="20" height="20" viewBox="0 0 20 20" fill="none" xmlns="http://www.w3.org/2000/svg">
    <path
        d="M1.03312e-06 10C1.20603e-06 11.9778 0.586492 13.9112 1.68531 15.5557C2.78412 17.2002 4.34591 18.4819 6.17317 19.2388C8.00043 19.9957 10.0111 20.1937 11.9509 19.8079C13.8907 19.422 15.6725 18.4696 17.0711 17.0711C18.4696 15.6725 19.422 13.8907 19.8079 11.9509C20.1937 10.0111 19.9957 8.00043 19.2388 6.17316C18.4819 4.3459 17.2002 2.78412 15.5557 1.6853C13.9112 0.586489 11.9778 -1.20603e-06 10 -1.03312e-06L10 10L1.03312e-06 10Z"
        fill="#964E13" />
</svg>