<svg width="24" height="24" viewBox="0 0 24 24" fill="none" xmlns="http://www.w3.org/2000/svg">
<path fill-rule="evenodd" clip-rule="evenodd" d="M8.41247 11.9994L15.7055 4.70643C15.8876 4.51783 15.9884 4.26523 15.9861 4.00303C15.9839 3.74083 15.8787 3.49002 15.6933 3.30461C15.5079 3.1192 15.2571 3.01403 14.9949 3.01176C14.7327 3.00948 14.4801 3.11027 14.2915 3.29243L6.43348 11.1494C6.20845 11.3745 6.08203 11.6797 6.08203 11.9979C6.08203 12.3162 6.20845 12.6214 6.43348 12.8464L14.2915 20.7064C14.4791 20.8939 14.7336 20.9992 14.9988 20.9991C15.2641 20.999 15.5185 20.8936 15.706 20.7059C15.8935 20.5183 15.9988 20.2638 15.9987 19.9986C15.9986 19.7333 15.8931 19.4789 15.7055 19.2914L8.41247 11.9994Z" fill="#3D2116"/>
</svg>
