<svg width="24" height="24" viewBox="0 0 24 24" fill="none" xmlns="http://www.w3.org/2000/svg">
<path fill-rule="evenodd" clip-rule="evenodd" d="M15.5862 11.9994L8.2932 4.70643C8.11104 4.51783 8.01025 4.26523 8.01253 4.00303C8.01481 3.74083 8.11998 3.49002 8.30538 3.30461C8.49079 3.1192 8.74161 3.01403 9.0038 3.01176C9.266 3.00948 9.5186 3.11027 9.7072 3.29243L17.5662 11.1504C17.7912 11.3755 17.9176 11.6807 17.9176 11.9989C17.9176 12.3172 17.7912 12.6224 17.5662 12.8474L9.7072 20.7074C9.51956 20.8949 9.26512 21.0002 8.99985 21.0001C8.73458 21 8.48021 20.8946 8.2927 20.7069C8.10519 20.5193 7.99991 20.2648 8 19.9996C8.00009 19.7343 8.10556 19.4799 8.2932 19.2924L15.5862 11.9994Z" fill="#3D2116"/>
</svg>
