<svg width="102" height="51" viewBox="0 0 102 51" fill="none" xmlns="http://www.w3.org/2000/svg">
    <path
        d="M51 25.5C51 20.4566 49.5045 15.5264 46.7025 11.333C43.9005 7.13951 39.9179 3.87111 35.2584 1.94107C30.5989 0.0110373 25.4717 -0.493948 20.5252 0.489975C15.5787 1.4739 11.035 3.90254 7.46878 7.46878C3.90254 11.035 1.4739 15.5787 0.489975 20.5252C-0.493948 25.4717 0.0110373 30.5989 1.94107 35.2584C3.87111 39.9179 7.13951 43.9005 11.333 46.7025C15.5264 49.5045 20.4566 51 25.5 51V25.5H51Z"
        fill="#964E13" />
    <path
        d="M51 25.5C51 30.5434 52.4955 35.4736 55.2975 39.667C58.0995 43.8605 62.0821 47.1289 66.7416 49.0589C71.4011 50.989 76.5283 51.494 81.4748 50.51C86.4213 49.5261 90.965 47.0975 94.5312 43.5312C98.0975 39.965 100.526 35.4213 101.51 30.4748C102.494 25.5283 101.989 20.4011 100.059 15.7416C98.1289 11.0821 94.8605 7.0995 90.667 4.29752C86.4736 1.49555 81.5434 1.78837e-06 76.5 2.22928e-06L76.5 25.5L51 25.5Z"
        fill="#964E13" />
</svg>