<svg width="202" height="63" viewBox="0 0 202 63" fill="none" xmlns="http://www.w3.org/2000/svg">
<path d="M5.69531 8.21875H19.6309V9.38951H15.4503V52.5774H19.6309V53.7481H5.69531V52.5774H9.876V9.38951H5.69531V8.21875Z" fill="#9C9C9C"/>
<path d="M17.604 30.9835L29.5886 9.38953H25.2983V8.21878L34.2869 8.21878V9.38953H30.5442L21.8643 25.0647L34.2869 52.5774H37.313V53.7482H23.7755V52.5774H27.12L17.604 31.6339V30.9835Z" fill="#9C9C9C"/>
<path fill-rule="evenodd" clip-rule="evenodd" d="M19.6309 8.21875H5.69531V9.38951H9.876V42.0496L15.4503 32.8805V9.38951H19.6309V8.21875Z" fill="white"/>
<path d="M5.47656 47.7435L7.26758 49.6407L16.1205 33.6714V28.5195L5.47656 47.7435Z" fill="#3D2116"/>
<rect x="0.316176" y="0.316176" width="42.3676" height="61.3869" stroke="white" stroke-width="0.632353"/>
<path d="M56.9582 26.2003C56.9582 26.7792 57.0049 27.1994 57.0983 27.4609C57.2103 27.7223 57.4157 27.8997 57.7145 27.9931C58.032 28.0865 58.5362 28.1332 59.2272 28.1332C59.2646 28.1332 59.2832 28.1892 59.2832 28.3012C59.2832 28.4133 59.2646 28.4693 59.2272 28.4693C58.6296 28.4693 58.1627 28.46 57.8266 28.4413L55.8097 28.4133L53.8488 28.4413C53.494 28.46 53.0084 28.4693 52.3922 28.4693C52.3548 28.4693 52.3361 28.4133 52.3361 28.3012C52.3361 28.1892 52.3548 28.1332 52.3922 28.1332C53.0645 28.1332 53.5594 28.0865 53.8768 27.9931C54.1943 27.8997 54.4091 27.7223 54.5211 27.4609C54.6518 27.1807 54.7172 26.7605 54.7172 26.2003V13.2305C54.7172 12.6703 54.6518 12.2594 54.5211 11.998C54.4091 11.7365 54.1943 11.5591 53.8768 11.4657C53.5594 11.3537 53.0645 11.2977 52.3922 11.2977C52.3548 11.2977 52.3361 11.2416 52.3361 11.1296C52.3361 11.0175 52.3548 10.9615 52.3922 10.9615L53.8488 10.9895C54.6705 11.0269 55.3241 11.0455 55.8097 11.0455C56.3513 11.0455 57.0329 11.0269 57.8546 10.9895L59.2272 10.9615C59.2646 10.9615 59.2832 11.0175 59.2832 11.1296C59.2832 11.2416 59.2646 11.2977 59.2272 11.2977C58.5549 11.2977 58.06 11.3537 57.7426 11.4657C57.4438 11.5778 57.2383 11.7739 57.1263 12.054C57.0142 12.3154 56.9582 12.7263 56.9582 13.2865V26.2003Z" fill="white"/>
<path d="M75.8375 28.4693C75.3706 28.4693 74.5023 27.685 73.2324 26.1163C71.9811 24.5476 70.4591 22.3532 68.6663 19.5333L70.5432 18.9451C72.1305 21.2794 73.4658 23.1002 74.5489 24.4075C75.6321 25.7147 76.5845 26.6672 77.4062 27.2648C78.2466 27.8437 79.059 28.1332 79.8433 28.1332C79.8993 28.1332 79.9273 28.1892 79.9273 28.3012C79.9273 28.4133 79.8993 28.4693 79.8433 28.4693H75.8375ZM69.0865 10.8775C70.6365 10.8775 71.8317 11.2043 72.6721 11.8579C73.5125 12.5115 73.9327 13.3986 73.9327 14.5191C73.9327 15.5275 73.6339 16.452 73.0363 17.2923C72.4573 18.114 71.6823 18.7677 70.7112 19.2532C69.7401 19.7201 68.7037 19.9535 67.6019 19.9535C67.2097 19.9535 66.7521 19.9348 66.2292 19.8975V26.2003C66.2292 26.7605 66.2853 27.1807 66.3973 27.4609C66.5094 27.7223 66.7148 27.8997 67.0136 27.9931C67.3311 28.0865 67.826 28.1332 68.4983 28.1332C68.5543 28.1332 68.5823 28.1892 68.5823 28.3012C68.5823 28.4133 68.5543 28.4693 68.4983 28.4693C67.9193 28.4693 67.4618 28.46 67.1256 28.4413L65.1087 28.4133L63.1479 28.4413C62.793 28.46 62.3168 28.4693 61.7192 28.4693C61.6632 28.4693 61.6352 28.4133 61.6352 28.3012C61.6352 28.1892 61.6632 28.1332 61.7192 28.1332C62.3915 28.1332 62.8864 28.0865 63.2039 27.9931C63.5214 27.8997 63.7361 27.7223 63.8482 27.4609C63.9602 27.1807 64.0163 26.7605 64.0163 26.2003V13.2305C64.0163 12.6703 63.9602 12.2594 63.8482 11.998C63.7361 11.7365 63.5214 11.5591 63.2039 11.4657C62.9051 11.3537 62.4195 11.2977 61.7472 11.2977C61.7099 11.2977 61.6912 11.2416 61.6912 11.1296C61.6912 11.0175 61.7099 10.9615 61.7472 10.9615L63.1479 10.9895C63.9696 11.0269 64.6232 11.0455 65.1087 11.0455C65.5009 11.0455 65.8744 11.0362 66.2292 11.0175C66.5841 10.9989 66.8922 10.9802 67.1537 10.9615C67.8633 10.9055 68.5076 10.8775 69.0865 10.8775ZM71.6357 15.4155C71.6357 13.9215 71.3462 12.8757 70.7673 12.2781C70.1883 11.6618 69.3386 11.3537 68.2181 11.3537C67.4898 11.3537 66.9762 11.4937 66.6774 11.7739C66.3786 12.0353 66.2292 12.5395 66.2292 13.2865V19.1972C66.7708 19.2532 67.3217 19.2812 67.882 19.2812C69.2266 19.2812 70.1883 18.9731 70.7673 18.3568C71.3462 17.7219 71.6357 16.7414 71.6357 15.4155Z" fill="white"/>
<path d="M85.4084 26.2003C85.4084 26.7792 85.4551 27.1994 85.5484 27.4609C85.6605 27.7223 85.8659 27.8997 86.1647 27.9931C86.4822 28.0865 86.9864 28.1332 87.6774 28.1332C87.7147 28.1332 87.7334 28.1892 87.7334 28.3012C87.7334 28.4133 87.7147 28.4693 87.6774 28.4693C87.0798 28.4693 86.6129 28.46 86.2768 28.4413L84.2599 28.4133L82.299 28.4413C81.9442 28.46 81.4586 28.4693 80.8423 28.4693C80.805 28.4693 80.7863 28.4133 80.7863 28.3012C80.7863 28.1892 80.805 28.1332 80.8423 28.1332C81.5146 28.1332 82.0095 28.0865 82.327 27.9931C82.6445 27.8997 82.8592 27.7223 82.9713 27.4609C83.102 27.1807 83.1674 26.7605 83.1674 26.2003V13.2305C83.1674 12.6703 83.102 12.2594 82.9713 11.998C82.8592 11.7365 82.6445 11.5591 82.327 11.4657C82.0095 11.3537 81.5146 11.2977 80.8423 11.2977C80.805 11.2977 80.7863 11.2416 80.7863 11.1296C80.7863 11.0175 80.805 10.9615 80.8423 10.9615L82.299 10.9895C83.1207 11.0269 83.7743 11.0455 84.2599 11.0455C84.8014 11.0455 85.4831 11.0269 86.3048 10.9895L87.6774 10.9615C87.7147 10.9615 87.7334 11.0175 87.7334 11.1296C87.7334 11.2416 87.7147 11.2977 87.6774 11.2977C87.0051 11.2977 86.5102 11.3537 86.1927 11.4657C85.8939 11.5778 85.6885 11.7739 85.5765 12.054C85.4644 12.3154 85.4084 12.7263 85.4084 13.2865V26.2003Z" fill="white"/>
<path d="M92.3824 11.6058L93.1107 11.6618V25.2759C93.1107 26.247 93.2881 26.966 93.6429 27.4328C94.0164 27.8997 94.5767 28.1332 95.3237 28.1332C95.361 28.1332 95.3797 28.1892 95.3797 28.3012C95.3797 28.4133 95.361 28.4693 95.3237 28.4693C94.8381 28.4693 94.4646 28.46 94.2032 28.4413L92.7746 28.4133L91.2619 28.4413C90.9818 28.46 90.5709 28.4693 90.0293 28.4693C89.992 28.4693 89.9733 28.4133 89.9733 28.3012C89.9733 28.1892 89.992 28.1332 90.0293 28.1332C90.8324 28.1332 91.4206 27.8997 91.7941 27.4328C92.1863 26.966 92.3824 26.247 92.3824 25.2759V11.6058ZM106.557 28.8335C106.557 28.8708 106.51 28.8988 106.417 28.9175C106.342 28.9362 106.286 28.9268 106.249 28.8895L93.0547 13.2585C92.4384 12.5302 91.8875 12.026 91.4019 11.7459C90.9164 11.4471 90.4309 11.2977 89.9453 11.2977C89.908 11.2977 89.8893 11.2416 89.8893 11.1296C89.8893 11.0175 89.908 10.9615 89.9453 10.9615L91.0378 10.9895C91.2619 11.0082 91.5794 11.0175 91.9902 11.0175L93.4188 10.9895C93.6056 10.9708 93.8204 10.9615 94.0631 10.9615C94.2125 10.9615 94.3246 10.9989 94.3993 11.0736C94.474 11.1483 94.586 11.2977 94.7354 11.5218L95.4077 12.4182L106.333 25.584L106.557 28.8335ZM106.557 28.8335L105.856 27.9651V14.1829C105.856 13.2118 105.679 12.4929 105.324 12.026C104.969 11.5404 104.418 11.2977 103.671 11.2977C103.634 11.2977 103.615 11.2416 103.615 11.1296C103.615 11.0175 103.634 10.9615 103.671 10.9615L104.792 10.9895C105.352 11.0269 105.828 11.0455 106.221 11.0455C106.557 11.0455 107.042 11.0269 107.677 10.9895L108.854 10.9615C108.891 10.9615 108.91 11.0175 108.91 11.1296C108.91 11.2416 108.891 11.2977 108.854 11.2977C107.322 11.2977 106.557 12.2594 106.557 14.1829V28.8335Z" fill="white"/>
<path d="M115.002 20.5418H122.621L122.817 21.158H114.665L115.002 20.5418ZM129.148 28.1332C129.241 28.1332 129.288 28.1892 129.288 28.3012C129.288 28.4133 129.241 28.4693 129.148 28.4693C128.793 28.4693 128.242 28.4506 127.495 28.4133C126.711 28.3759 126.151 28.3573 125.814 28.3573C125.385 28.3573 124.853 28.3759 124.218 28.4133C123.583 28.4506 123.107 28.4693 122.789 28.4693C122.714 28.4693 122.677 28.4133 122.677 28.3012C122.677 28.1892 122.714 28.1332 122.789 28.1332C123.424 28.1332 123.882 28.0771 124.162 27.9651C124.442 27.8344 124.582 27.6103 124.582 27.2928C124.582 26.9753 124.442 26.5364 124.162 25.9762L118.139 13.4546L119.035 12.11L113.573 24.7717C113.312 25.4066 113.181 25.9295 113.181 26.3404C113.181 26.938 113.414 27.3862 113.881 27.685C114.348 27.9838 115.02 28.1332 115.898 28.1332C115.991 28.1332 116.038 28.1892 116.038 28.3012C116.038 28.4133 115.991 28.4693 115.898 28.4693C115.562 28.4693 115.076 28.4506 114.441 28.4133C113.732 28.3759 113.115 28.3573 112.593 28.3573C112.107 28.3573 111.528 28.3759 110.856 28.4133C110.258 28.4506 109.773 28.4693 109.399 28.4693C109.324 28.4693 109.287 28.4133 109.287 28.3012C109.287 28.1892 109.324 28.1332 109.399 28.1332C109.922 28.1332 110.361 28.0304 110.716 27.825C111.089 27.6196 111.444 27.2648 111.78 26.7605C112.116 26.2563 112.499 25.5093 112.929 24.5195L118.895 10.7654C118.914 10.7094 118.979 10.6814 119.091 10.6814C119.203 10.6627 119.269 10.6907 119.287 10.7654L126.01 24.6316C126.664 25.9949 127.206 26.9193 127.635 27.4048C128.083 27.8904 128.588 28.1332 129.148 28.1332Z" fill="white"/>
<path d="M54.3811 35.7406C54.3811 35.1804 54.325 34.7695 54.213 34.5081C54.1009 34.2466 53.8862 34.0692 53.5687 33.9758C53.2699 33.8638 52.7843 33.8078 52.112 33.8078C52.056 33.8078 52.028 33.7517 52.028 33.6397C52.028 33.5276 52.056 33.4716 52.112 33.4716L53.5127 33.4996C54.3344 33.537 54.988 33.5556 55.4735 33.5556C55.9964 33.5556 56.6687 33.537 57.4904 33.4996L58.8631 33.4716C58.9004 33.4716 58.9191 33.5276 58.9191 33.6397C58.9191 33.7517 58.9004 33.8078 58.8631 33.8078C58.2094 33.8078 57.7239 33.8638 57.4064 33.9758C57.0889 34.0879 56.8742 34.284 56.7621 34.5641C56.6501 34.8255 56.594 35.2364 56.594 35.7966V48.7104C56.594 49.2893 56.6407 49.7095 56.7341 49.971C56.8462 50.2324 57.0516 50.4098 57.3504 50.5032C57.6679 50.5966 58.1721 50.6432 58.8631 50.6432C58.9191 50.6432 58.9471 50.6993 58.9471 50.8113C58.9471 50.9234 58.9191 50.9794 58.8631 50.9794C58.2655 50.9794 57.7986 50.9701 57.4624 50.9514L55.4735 50.9234L53.5127 50.9514C53.1578 50.9701 52.6723 50.9794 52.056 50.9794C52.0187 50.9794 52 50.9234 52 50.8113C52 50.6993 52.0187 50.6432 52.056 50.6432C52.7283 50.6432 53.2232 50.5966 53.5407 50.5032C53.8582 50.4098 54.0729 50.2324 54.185 49.971C54.3157 49.6908 54.3811 49.2706 54.3811 48.7104V35.7406ZM57.2383 41.4552L58.9191 39.9985L63.0649 45.4049C64.3722 47.1604 65.3713 48.4023 66.0623 49.1306C66.7532 49.8402 67.2855 50.2697 67.659 50.4192C68.0511 50.5686 68.5927 50.6432 69.2837 50.6432C69.3397 50.6432 69.3677 50.6993 69.3677 50.8113C69.3677 50.9234 69.3397 50.9794 69.2837 50.9794H66.1463L65.2779 51.0074C65.0165 51.0074 64.811 50.9701 64.6616 50.8954C64.5309 50.8207 64.3722 50.6806 64.1854 50.4752C64.0174 50.2697 63.7279 49.8869 63.317 49.3267C63.149 49.1212 62.9249 48.8318 62.6447 48.4583C62.3646 48.0661 61.9818 47.5525 61.4962 46.9176L57.2383 41.4552ZM62.3366 35.9367C62.9342 35.3018 63.233 34.8255 63.233 34.5081C63.233 34.0412 62.6821 33.8078 61.5803 33.8078C61.5242 33.8078 61.4962 33.7517 61.4962 33.6397C61.4962 33.5276 61.5242 33.4716 61.5803 33.4716L62.8128 33.4996C63.5598 33.537 64.2695 33.5556 64.9418 33.5556C65.6141 33.5556 66.305 33.537 67.0147 33.4996L68.1072 33.4716C68.1632 33.4716 68.1912 33.5276 68.1912 33.6397C68.1912 33.7517 68.1632 33.8078 68.1072 33.8078C67.3228 33.8078 66.4731 34.0038 65.558 34.396C64.643 34.7882 63.8026 35.3578 63.0369 36.1048L55.8377 43.2199L55.1374 43.1919L62.3366 35.9367Z" fill="white"/>
<path d="M85.4285 36.693C85.4285 35.7593 85.2137 35.0496 84.7842 34.5641C84.3547 34.0599 83.7384 33.8078 82.9354 33.8078C82.8794 33.8078 82.8514 33.7517 82.8514 33.6397C82.8514 33.5276 82.8794 33.4716 82.9354 33.4716L84.196 33.4996C84.8683 33.537 85.4005 33.5556 85.7927 33.5556C86.1288 33.5556 86.6144 33.537 87.2493 33.4996L88.4539 33.4716C88.4912 33.4716 88.5099 33.5276 88.5099 33.6397C88.5099 33.7517 88.4912 33.8078 88.4539 33.8078C87.7069 33.8078 87.1373 34.0505 86.7451 34.5361C86.3716 35.0216 86.1848 35.7406 86.1848 36.693V44.6206C86.1848 46.7122 85.5686 48.3556 84.336 49.5508C83.1222 50.746 81.4974 51.3436 79.4619 51.3436C78.0799 51.3436 76.866 51.0821 75.8202 50.5592C74.7744 50.0176 73.9621 49.252 73.3831 48.2622C72.8042 47.2537 72.5148 46.0772 72.5148 44.7326V35.7406C72.5148 35.1804 72.4587 34.7695 72.3467 34.5081C72.2346 34.2466 72.0199 34.0692 71.7024 33.9758C71.4036 33.8638 70.918 33.8078 70.2457 33.8078C70.1897 33.8078 70.1617 33.7517 70.1617 33.6397C70.1617 33.5276 70.1897 33.4716 70.2457 33.4716L71.6464 33.4996C72.4681 33.537 73.1217 33.5556 73.6072 33.5556C74.1488 33.5556 74.8118 33.537 75.5961 33.4996L76.9687 33.4716C77.0248 33.4716 77.0528 33.5276 77.0528 33.6397C77.0528 33.7517 77.0248 33.8078 76.9687 33.8078C76.3151 33.8078 75.8296 33.8638 75.5121 33.9758C75.2133 34.0879 75.0079 34.284 74.8958 34.5641C74.7838 34.8255 74.7277 35.2364 74.7277 35.7966V43.7522C74.7277 45.9558 75.204 47.6272 76.1564 48.7664C77.1275 49.8869 78.4814 50.4472 80.2182 50.4472C81.8429 50.4472 83.1128 49.9429 84.0279 48.9345C84.9616 47.9074 85.4285 46.4787 85.4285 44.6486V36.693Z" fill="white"/>
<path d="M97.7034 51.0914C97.1245 51.0914 96.4709 51.0634 95.7426 51.0074C95.4625 50.9887 95.117 50.9701 94.7061 50.9514C94.3139 50.9327 93.8657 50.9234 93.3615 50.9234L91.4006 50.9514C91.0458 50.9701 90.5603 50.9794 89.944 50.9794C89.9066 50.9794 89.888 50.9234 89.888 50.8113C89.888 50.6993 89.9066 50.6432 89.944 50.6432C90.6163 50.6432 91.1112 50.5966 91.4287 50.5032C91.7461 50.4098 91.9609 50.2324 92.0729 49.971C92.2037 49.6908 92.269 49.2706 92.269 48.7104V35.7406C92.269 35.1804 92.213 34.7695 92.101 34.5081C91.9889 34.2466 91.7741 34.0692 91.4567 33.9758C91.1579 33.8638 90.6723 33.8078 90 33.8078C89.944 33.8078 89.916 33.7517 89.916 33.6397C89.916 33.5276 89.944 33.4716 90 33.4716L91.4006 33.4996C92.2223 33.537 92.876 33.5556 93.3615 33.5556C94.0525 33.5556 94.7621 33.5276 95.4905 33.4716C96.3869 33.4342 96.9938 33.4156 97.3113 33.4156C99.2348 33.4156 100.944 33.7891 102.438 34.5361C103.932 35.2831 105.089 36.3009 105.911 37.5894C106.733 38.878 107.144 40.3253 107.144 41.9314C107.144 43.7428 106.714 45.3489 105.855 46.7495C105.015 48.1315 103.866 49.2053 102.41 49.971C100.972 50.7179 99.4029 51.0914 97.7034 51.0914ZM97.4233 50.5872C98.8239 50.5872 100.066 50.2791 101.149 49.6628C102.232 49.0279 103.073 48.1128 103.67 46.9176C104.286 45.7037 104.595 44.2471 104.595 42.5476C104.595 40.9229 104.305 39.4569 103.726 38.1497C103.147 36.8238 102.326 35.7873 101.261 35.0403C100.215 34.2746 98.992 33.8918 97.5914 33.8918C96.7884 33.8918 96.1721 33.9385 95.7426 34.0319C95.313 34.1252 94.9956 34.312 94.7901 34.5921C94.5847 34.8535 94.482 35.2551 94.482 35.7966V48.4022C94.482 48.9438 94.5567 49.3733 94.7061 49.6908C94.8742 49.9896 95.1637 50.2137 95.5745 50.3631C96.004 50.5125 96.6203 50.5872 97.4233 50.5872Z" fill="white"/>
<path d="M113.771 43.0519H121.39L121.586 43.6681H113.434L113.771 43.0519ZM127.917 50.6432C128.01 50.6432 128.057 50.6993 128.057 50.8113C128.057 50.9234 128.01 50.9794 127.917 50.9794C127.562 50.9794 127.011 50.9607 126.264 50.9234C125.48 50.886 124.92 50.8673 124.583 50.8673C124.154 50.8673 123.622 50.886 122.987 50.9234C122.352 50.9607 121.876 50.9794 121.558 50.9794C121.483 50.9794 121.446 50.9234 121.446 50.8113C121.446 50.6993 121.483 50.6432 121.558 50.6432C122.193 50.6432 122.651 50.5872 122.931 50.4752C123.211 50.3445 123.351 50.1203 123.351 49.8029C123.351 49.4854 123.211 49.0465 122.931 48.4863L116.908 35.9647L117.804 34.6201L112.342 47.2817C112.08 47.9167 111.95 48.4396 111.95 48.8504C111.95 49.448 112.183 49.8962 112.65 50.195C113.117 50.4938 113.789 50.6432 114.667 50.6432C114.76 50.6432 114.807 50.6993 114.807 50.8113C114.807 50.9234 114.76 50.9794 114.667 50.9794C114.331 50.9794 113.845 50.9607 113.21 50.9234C112.501 50.886 111.884 50.8673 111.361 50.8673C110.876 50.8673 110.297 50.886 109.625 50.9234C109.027 50.9607 108.542 50.9794 108.168 50.9794C108.093 50.9794 108.056 50.9234 108.056 50.8113C108.056 50.6993 108.093 50.6432 108.168 50.6432C108.691 50.6432 109.13 50.5405 109.485 50.3351C109.858 50.1297 110.213 49.7749 110.549 49.2706C110.885 48.7664 111.268 48.0194 111.698 47.0296L117.664 33.2755C117.683 33.2195 117.748 33.1915 117.86 33.1915C117.972 33.1728 118.038 33.2008 118.056 33.2755L124.779 47.1417C125.433 48.505 125.975 49.4294 126.404 49.9149C126.852 50.4005 127.357 50.6432 127.917 50.6432Z" fill="white"/>
<path d="M131.224 35.7406C131.224 35.1804 131.168 34.7695 131.056 34.5081C130.944 34.2466 130.729 34.0692 130.412 33.9758C130.113 33.8638 129.627 33.8078 128.955 33.8078C128.899 33.8078 128.871 33.7517 128.871 33.6397C128.871 33.5276 128.899 33.4716 128.955 33.4716L130.355 33.4996C131.177 33.537 131.831 33.5556 132.316 33.5556C132.839 33.5556 133.512 33.537 134.333 33.4996L135.706 33.4716C135.743 33.4716 135.762 33.5276 135.762 33.6397C135.762 33.7517 135.743 33.8078 135.706 33.8078C135.052 33.8078 134.567 33.8638 134.249 33.9758C133.932 34.0879 133.717 34.284 133.605 34.5641C133.493 34.8255 133.437 35.2364 133.437 35.7966V48.7104C133.437 49.2893 133.484 49.7095 133.577 49.971C133.689 50.2324 133.894 50.4098 134.193 50.5032C134.511 50.5966 135.015 50.6432 135.706 50.6432C135.762 50.6432 135.79 50.6993 135.79 50.8113C135.79 50.9234 135.762 50.9794 135.706 50.9794C135.108 50.9794 134.641 50.9701 134.305 50.9514L132.316 50.9234L130.355 50.9514C130.001 50.9701 129.515 50.9794 128.899 50.9794C128.861 50.9794 128.843 50.9234 128.843 50.8113C128.843 50.6993 128.861 50.6432 128.899 50.6432C129.571 50.6432 130.066 50.5966 130.383 50.5032C130.701 50.4098 130.916 50.2324 131.028 49.971C131.159 49.6908 131.224 49.2706 131.224 48.7104V35.7406ZM134.081 41.4552L135.762 39.9985L139.908 45.4049C141.215 47.1604 142.214 48.4023 142.905 49.1306C143.596 49.8402 144.128 50.2697 144.502 50.4192C144.894 50.5686 145.436 50.6432 146.127 50.6432C146.183 50.6432 146.211 50.6993 146.211 50.8113C146.211 50.9234 146.183 50.9794 146.127 50.9794H142.989L142.121 51.0074C141.859 51.0074 141.654 50.9701 141.504 50.8954C141.374 50.8207 141.215 50.6806 141.028 50.4752C140.86 50.2697 140.571 49.8869 140.16 49.3267C139.992 49.1212 139.768 48.8318 139.488 48.4583C139.207 48.0661 138.825 47.5525 138.339 46.9176L134.081 41.4552ZM139.179 35.9367C139.777 35.3018 140.076 34.8255 140.076 34.5081C140.076 34.0412 139.525 33.8078 138.423 33.8078C138.367 33.8078 138.339 33.7517 138.339 33.6397C138.339 33.5276 138.367 33.4716 138.423 33.4716L139.656 33.4996C140.403 33.537 141.112 33.5556 141.785 33.5556C142.457 33.5556 143.148 33.537 143.857 33.4996L144.95 33.4716C145.006 33.4716 145.034 33.5276 145.034 33.6397C145.034 33.7517 145.006 33.8078 144.95 33.8078C144.166 33.8078 143.316 34.0038 142.401 34.396C141.486 34.7882 140.645 35.3578 139.88 36.1048L132.681 43.2199L131.98 43.1919L139.179 35.9367Z" fill="white"/>
<path d="M155.516 51.3155C153.779 51.3155 152.229 50.914 150.866 50.111C149.521 49.2893 148.475 48.1875 147.728 46.8055C147 45.4049 146.636 43.8829 146.636 42.2395C146.636 40.316 147.122 38.6726 148.093 37.3093C149.064 35.9274 150.306 34.8909 151.818 34.1999C153.35 33.509 154.909 33.1635 156.496 33.1635C158.271 33.1635 159.83 33.5837 161.174 34.424C162.519 35.2457 163.546 36.3382 164.256 37.7015C164.984 39.0648 165.348 40.5121 165.348 42.0434C165.348 43.7428 164.9 45.3022 164.004 46.7215C163.107 48.1408 161.903 49.2613 160.39 50.083C158.896 50.9047 157.271 51.3155 155.516 51.3155ZM156.496 50.6993C157.692 50.6993 158.765 50.3911 159.718 49.7749C160.67 49.1586 161.417 48.2622 161.959 47.0857C162.519 45.8905 162.799 44.4712 162.799 42.8278C162.799 41.091 162.491 39.541 161.875 38.1777C161.277 36.8144 160.409 35.7499 159.27 34.9843C158.149 34.2186 156.842 33.8358 155.348 33.8358C153.406 33.8358 151.893 34.4987 150.81 35.8246C149.727 37.1319 149.185 38.9434 149.185 41.2591C149.185 43.0332 149.493 44.6392 150.11 46.0772C150.726 47.5152 151.585 48.645 152.687 49.4667C153.807 50.2884 155.077 50.6993 156.496 50.6993Z" fill="white"/>
<path d="M184.766 33.4716C184.822 33.4716 184.85 33.5276 184.85 33.6397C184.85 33.7517 184.822 33.8078 184.766 33.8078C183.422 33.8078 182.413 34.6575 181.741 36.3569L176.026 50.9514C176.008 51.0261 175.905 51.0634 175.718 51.0634C175.531 51.0634 175.429 51.0261 175.41 50.9514L168.379 35.7966C168.043 35.087 167.697 34.5828 167.342 34.284C167.006 33.9665 166.586 33.8078 166.082 33.8078C166.026 33.8078 165.998 33.7517 165.998 33.6397C165.998 33.5276 166.026 33.4716 166.082 33.4716L166.95 33.4996C167.436 33.537 167.893 33.5556 168.323 33.5556C169.331 33.5556 170.302 33.537 171.236 33.4996C171.535 33.4809 171.918 33.4716 172.385 33.4716C172.441 33.4716 172.469 33.5276 172.469 33.6397C172.469 33.7517 172.441 33.8078 172.385 33.8078C171.227 33.8078 170.648 34.1626 170.648 34.8722C170.648 35.171 170.741 35.5072 170.928 35.8807L176.671 48.3742L175.662 49.999L181.069 36.2168C181.218 35.806 181.293 35.4605 181.293 35.1804C181.293 34.2653 180.583 33.8078 179.164 33.8078C179.108 33.8078 179.08 33.7517 179.08 33.6397C179.08 33.5276 179.108 33.4716 179.164 33.4716L180.424 33.4996C181.134 33.537 181.75 33.5556 182.273 33.5556C182.665 33.5556 183.104 33.537 183.59 33.4996L184.766 33.4716Z" fill="white"/>
<path d="M187.714 43.0519H195.333L195.529 43.6681H187.378L187.714 43.0519ZM201.86 50.6432C201.953 50.6432 202 50.6993 202 50.8113C202 50.9234 201.953 50.9794 201.86 50.9794C201.505 50.9794 200.954 50.9607 200.207 50.9234C199.423 50.886 198.863 50.8673 198.526 50.8673C198.097 50.8673 197.565 50.886 196.93 50.9234C196.295 50.9607 195.819 50.9794 195.501 50.9794C195.426 50.9794 195.389 50.9234 195.389 50.8113C195.389 50.6993 195.426 50.6432 195.501 50.6432C196.136 50.6432 196.594 50.5872 196.874 50.4752C197.154 50.3445 197.294 50.1203 197.294 49.8029C197.294 49.4854 197.154 49.0465 196.874 48.4863L190.851 35.9647L191.747 34.6201L186.285 47.2817C186.024 47.9167 185.893 48.4396 185.893 48.8504C185.893 49.448 186.126 49.8962 186.593 50.195C187.06 50.4938 187.732 50.6432 188.61 50.6432C188.703 50.6432 188.75 50.6993 188.75 50.8113C188.75 50.9234 188.703 50.9794 188.61 50.9794C188.274 50.9794 187.788 50.9607 187.153 50.9234C186.444 50.886 185.827 50.8673 185.305 50.8673C184.819 50.8673 184.24 50.886 183.568 50.9234C182.97 50.9607 182.485 50.9794 182.111 50.9794C182.036 50.9794 181.999 50.9234 181.999 50.8113C181.999 50.6993 182.036 50.6432 182.111 50.6432C182.634 50.6432 183.073 50.5405 183.428 50.3351C183.801 50.1297 184.156 49.7749 184.492 49.2706C184.828 48.7664 185.211 48.0194 185.641 47.0296L191.607 33.2755C191.626 33.2195 191.691 33.1915 191.803 33.1915C191.916 33.1728 191.981 33.2008 192 33.2755L198.723 47.1417C199.376 48.505 199.918 49.4294 200.347 49.9149C200.795 50.4005 201.3 50.6432 201.86 50.6432Z" fill="white"/>
</svg>
