<svg width="202" height="63" viewBox="0 0 202 63" fill="none" xmlns="http://www.w3.org/2000/svg">
<path d="M5.69531 8.21973H19.6309V9.39048H15.4503V52.5784H19.6309V53.7491H5.69531V52.5784H9.876V9.39048H5.69531V8.21973Z" fill="#3D2116"/>
<path d="M17.604 30.9844L29.5886 9.39051H25.2983V8.21975L34.2869 8.21975V9.39051H30.5442L21.8643 25.0656L34.2869 52.5784H37.313V53.7491H23.7755V52.5784H27.12L17.604 31.6349V30.9844Z" fill="#3D2116"/>
<path fill-rule="evenodd" clip-rule="evenodd" d="M19.6309 8.21973H5.69531V9.39048H9.876V42.0506L15.4503 32.8815V9.39048H19.6309V8.21973Z" fill="#9C9C9C"/>
<path d="M5.47656 47.7426L7.26758 49.6397L16.1205 33.6704V28.5186L5.47656 47.7426Z" fill="#E4E4E4"/>
<rect x="0.316176" y="0.316176" width="42.3676" height="61.3869" stroke="#3D2116" stroke-width="0.632353"/>
<path d="M56.9582 26.1998C56.9582 26.7787 57.0049 27.1989 57.0983 27.4604C57.2103 27.7218 57.4157 27.8992 57.7145 27.9926C58.032 28.086 58.5362 28.1327 59.2272 28.1327C59.2646 28.1327 59.2832 28.1887 59.2832 28.3007C59.2832 28.4128 59.2646 28.4688 59.2272 28.4688C58.6296 28.4688 58.1627 28.4595 57.8266 28.4408L55.8097 28.4128L53.8488 28.4408C53.494 28.4595 53.0084 28.4688 52.3922 28.4688C52.3548 28.4688 52.3361 28.4128 52.3361 28.3007C52.3361 28.1887 52.3548 28.1327 52.3922 28.1327C53.0645 28.1327 53.5594 28.086 53.8768 27.9926C54.1943 27.8992 54.4091 27.7218 54.5211 27.4604C54.6518 27.1802 54.7172 26.7601 54.7172 26.1998V13.23C54.7172 12.6698 54.6518 12.2589 54.5211 11.9975C54.4091 11.736 54.1943 11.5586 53.8768 11.4652C53.5594 11.3532 53.0645 11.2972 52.3922 11.2972C52.3548 11.2972 52.3361 11.2411 52.3361 11.1291C52.3361 11.017 52.3548 10.961 52.3922 10.961L53.8488 10.989C54.6705 11.0264 55.3241 11.0451 55.8097 11.0451C56.3513 11.0451 57.0329 11.0264 57.8546 10.989L59.2272 10.961C59.2646 10.961 59.2832 11.017 59.2832 11.1291C59.2832 11.2411 59.2646 11.2972 59.2272 11.2972C58.5549 11.2972 58.06 11.3532 57.7426 11.4652C57.4438 11.5773 57.2383 11.7734 57.1263 12.0535C57.0142 12.315 56.9582 12.7258 56.9582 13.2861V26.1998Z" fill="#3D2116"/>
<path d="M75.8375 28.4688C75.3706 28.4688 74.5023 27.6845 73.2324 26.1158C71.9811 24.5471 70.4591 22.3528 68.6663 19.5328L70.5432 18.9446C72.1305 21.2789 73.4658 23.0998 74.5489 24.407C75.6321 25.7143 76.5845 26.6667 77.4062 27.2643C78.2466 27.8432 79.059 28.1327 79.8433 28.1327C79.8993 28.1327 79.9273 28.1887 79.9273 28.3007C79.9273 28.4128 79.8993 28.4688 79.8433 28.4688H75.8375ZM69.0865 10.877C70.6365 10.877 71.8317 11.2038 72.6721 11.8574C73.5125 12.511 73.9327 13.3981 73.9327 14.5186C73.9327 15.5271 73.6339 16.4515 73.0363 17.2918C72.4573 18.1135 71.6823 18.7672 70.7112 19.2527C69.7401 19.7196 68.7037 19.953 67.6019 19.953C67.2097 19.953 66.7521 19.9344 66.2292 19.897V26.1998C66.2292 26.7601 66.2853 27.1802 66.3973 27.4604C66.5094 27.7218 66.7148 27.8992 67.0136 27.9926C67.3311 28.086 67.826 28.1327 68.4983 28.1327C68.5543 28.1327 68.5823 28.1887 68.5823 28.3007C68.5823 28.4128 68.5543 28.4688 68.4983 28.4688C67.9193 28.4688 67.4618 28.4595 67.1256 28.4408L65.1087 28.4128L63.1479 28.4408C62.793 28.4595 62.3168 28.4688 61.7192 28.4688C61.6632 28.4688 61.6352 28.4128 61.6352 28.3007C61.6352 28.1887 61.6632 28.1327 61.7192 28.1327C62.3915 28.1327 62.8864 28.086 63.2039 27.9926C63.5214 27.8992 63.7361 27.7218 63.8482 27.4604C63.9602 27.1802 64.0163 26.7601 64.0163 26.1998V13.23C64.0163 12.6698 63.9602 12.2589 63.8482 11.9975C63.7361 11.736 63.5214 11.5586 63.2039 11.4652C62.9051 11.3532 62.4195 11.2972 61.7472 11.2972C61.7099 11.2972 61.6912 11.2411 61.6912 11.1291C61.6912 11.017 61.7099 10.961 61.7472 10.961L63.1479 10.989C63.9696 11.0264 64.6232 11.0451 65.1087 11.0451C65.5009 11.0451 65.8744 11.0357 66.2292 11.017C66.5841 10.9984 66.8922 10.9797 67.1537 10.961C67.8633 10.905 68.5076 10.877 69.0865 10.877ZM71.6357 15.415C71.6357 13.921 71.3462 12.8752 70.7673 12.2776C70.1883 11.6613 69.3386 11.3532 68.2181 11.3532C67.4898 11.3532 66.9762 11.4933 66.6774 11.7734C66.3786 12.0348 66.2292 12.5391 66.2292 13.2861V19.1967C66.7708 19.2527 67.3217 19.2807 67.882 19.2807C69.2266 19.2807 70.1883 18.9726 70.7673 18.3563C71.3462 17.7214 71.6357 16.7409 71.6357 15.415Z" fill="#3D2116"/>
<path d="M85.4084 26.1998C85.4084 26.7787 85.4551 27.1989 85.5484 27.4604C85.6605 27.7218 85.8659 27.8992 86.1647 27.9926C86.4822 28.086 86.9864 28.1327 87.6774 28.1327C87.7147 28.1327 87.7334 28.1887 87.7334 28.3007C87.7334 28.4128 87.7147 28.4688 87.6774 28.4688C87.0798 28.4688 86.6129 28.4595 86.2768 28.4408L84.2599 28.4128L82.299 28.4408C81.9442 28.4595 81.4586 28.4688 80.8423 28.4688C80.805 28.4688 80.7863 28.4128 80.7863 28.3007C80.7863 28.1887 80.805 28.1327 80.8423 28.1327C81.5146 28.1327 82.0095 28.086 82.327 27.9926C82.6445 27.8992 82.8592 27.7218 82.9713 27.4604C83.102 27.1802 83.1674 26.7601 83.1674 26.1998V13.23C83.1674 12.6698 83.102 12.2589 82.9713 11.9975C82.8592 11.736 82.6445 11.5586 82.327 11.4652C82.0095 11.3532 81.5146 11.2972 80.8423 11.2972C80.805 11.2972 80.7863 11.2411 80.7863 11.1291C80.7863 11.017 80.805 10.961 80.8423 10.961L82.299 10.989C83.1207 11.0264 83.7743 11.0451 84.2599 11.0451C84.8014 11.0451 85.4831 11.0264 86.3048 10.989L87.6774 10.961C87.7147 10.961 87.7334 11.017 87.7334 11.1291C87.7334 11.2411 87.7147 11.2972 87.6774 11.2972C87.0051 11.2972 86.5102 11.3532 86.1927 11.4652C85.8939 11.5773 85.6885 11.7734 85.5765 12.0535C85.4644 12.315 85.4084 12.7258 85.4084 13.2861V26.1998Z" fill="#3D2116"/>
<path d="M92.3824 11.6053L93.1107 11.6613V25.2754C93.1107 26.2465 93.2881 26.9655 93.6429 27.4324C94.0164 27.8992 94.5767 28.1327 95.3237 28.1327C95.361 28.1327 95.3797 28.1887 95.3797 28.3007C95.3797 28.4128 95.361 28.4688 95.3237 28.4688C94.8381 28.4688 94.4646 28.4595 94.2032 28.4408L92.7746 28.4128L91.2619 28.4408C90.9818 28.4595 90.5709 28.4688 90.0293 28.4688C89.992 28.4688 89.9733 28.4128 89.9733 28.3007C89.9733 28.1887 89.992 28.1327 90.0293 28.1327C90.8324 28.1327 91.4206 27.8992 91.7941 27.4324C92.1863 26.9655 92.3824 26.2465 92.3824 25.2754V11.6053ZM106.557 28.833C106.557 28.8703 106.51 28.8983 106.417 28.917C106.342 28.9357 106.286 28.9264 106.249 28.889L93.0547 13.258C92.4384 12.5297 91.8875 12.0255 91.4019 11.7454C90.9164 11.4466 90.4309 11.2972 89.9453 11.2972C89.908 11.2972 89.8893 11.2411 89.8893 11.1291C89.8893 11.017 89.908 10.961 89.9453 10.961L91.0378 10.989C91.2619 11.0077 91.5794 11.017 91.9902 11.017L93.4188 10.989C93.6056 10.9704 93.8204 10.961 94.0631 10.961C94.2125 10.961 94.3246 10.9984 94.3993 11.0731C94.474 11.1478 94.586 11.2972 94.7354 11.5213L95.4077 12.4177L106.333 25.5835L106.557 28.833ZM106.557 28.833L105.856 27.9646V14.1825C105.856 13.2114 105.679 12.4924 105.324 12.0255C104.969 11.5399 104.418 11.2972 103.671 11.2972C103.634 11.2972 103.615 11.2411 103.615 11.1291C103.615 11.017 103.634 10.961 103.671 10.961L104.792 10.989C105.352 11.0264 105.828 11.0451 106.221 11.0451C106.557 11.0451 107.042 11.0264 107.677 10.989L108.854 10.961C108.891 10.961 108.91 11.017 108.91 11.1291C108.91 11.2411 108.891 11.2972 108.854 11.2972C107.322 11.2972 106.557 12.2589 106.557 14.1825V28.833Z" fill="#3D2116"/>
<path d="M115.002 20.5413H122.621L122.817 21.1576H114.665L115.002 20.5413ZM129.148 28.1327C129.241 28.1327 129.288 28.1887 129.288 28.3007C129.288 28.4128 129.241 28.4688 129.148 28.4688C128.793 28.4688 128.242 28.4501 127.495 28.4128C126.711 28.3754 126.151 28.3568 125.814 28.3568C125.385 28.3568 124.853 28.3754 124.218 28.4128C123.583 28.4501 123.107 28.4688 122.789 28.4688C122.714 28.4688 122.677 28.4128 122.677 28.3007C122.677 28.1887 122.714 28.1327 122.789 28.1327C123.424 28.1327 123.882 28.0766 124.162 27.9646C124.442 27.8339 124.582 27.6098 124.582 27.2923C124.582 26.9748 124.442 26.536 124.162 25.9757L118.139 13.4541L119.035 12.1095L113.573 24.7712C113.312 25.4061 113.181 25.929 113.181 26.3399C113.181 26.9375 113.414 27.3857 113.881 27.6845C114.348 27.9833 115.02 28.1327 115.898 28.1327C115.991 28.1327 116.038 28.1887 116.038 28.3007C116.038 28.4128 115.991 28.4688 115.898 28.4688C115.562 28.4688 115.076 28.4501 114.441 28.4128C113.732 28.3754 113.115 28.3568 112.593 28.3568C112.107 28.3568 111.528 28.3754 110.856 28.4128C110.258 28.4501 109.773 28.4688 109.399 28.4688C109.324 28.4688 109.287 28.4128 109.287 28.3007C109.287 28.1887 109.324 28.1327 109.399 28.1327C109.922 28.1327 110.361 28.03 110.716 27.8245C111.089 27.6191 111.444 27.2643 111.78 26.7601C112.116 26.2558 112.499 25.5088 112.929 24.5191L118.895 10.7649C118.914 10.7089 118.979 10.6809 119.091 10.6809C119.203 10.6622 119.269 10.6902 119.287 10.7649L126.01 24.6311C126.664 25.9944 127.206 26.9188 127.635 27.4043C128.083 27.8899 128.588 28.1327 129.148 28.1327Z" fill="#3D2116"/>
<path d="M54.3811 35.7401C54.3811 35.1799 54.325 34.769 54.213 34.5076C54.1009 34.2461 53.8862 34.0687 53.5687 33.9753C53.2699 33.8633 52.7843 33.8073 52.112 33.8073C52.056 33.8073 52.028 33.7512 52.028 33.6392C52.028 33.5271 52.056 33.4711 52.112 33.4711L53.5127 33.4991C54.3344 33.5365 54.988 33.5552 55.4735 33.5552C55.9964 33.5552 56.6687 33.5365 57.4904 33.4991L58.8631 33.4711C58.9004 33.4711 58.9191 33.5271 58.9191 33.6392C58.9191 33.7512 58.9004 33.8073 58.8631 33.8073C58.2094 33.8073 57.7239 33.8633 57.4064 33.9753C57.0889 34.0874 56.8742 34.2835 56.7621 34.5636C56.6501 34.825 56.594 35.2359 56.594 35.7961V48.7099C56.594 49.2888 56.6407 49.709 56.7341 49.9705C56.8462 50.2319 57.0516 50.4093 57.3504 50.5027C57.6679 50.5961 58.1721 50.6428 58.8631 50.6428C58.9191 50.6428 58.9471 50.6988 58.9471 50.8108C58.9471 50.9229 58.9191 50.9789 58.8631 50.9789C58.2655 50.9789 57.7986 50.9696 57.4624 50.9509L55.4735 50.9229L53.5127 50.9509C53.1578 50.9696 52.6723 50.9789 52.056 50.9789C52.0187 50.9789 52 50.9229 52 50.8108C52 50.6988 52.0187 50.6428 52.056 50.6428C52.7283 50.6428 53.2232 50.5961 53.5407 50.5027C53.8582 50.4093 54.0729 50.2319 54.185 49.9705C54.3157 49.6903 54.3811 49.2701 54.3811 48.7099V35.7401ZM57.2383 41.4547L58.9191 39.998L63.0649 45.4044C64.3722 47.1599 65.3713 48.4018 66.0623 49.1301C66.7532 49.8397 67.2855 50.2693 67.659 50.4187C68.0511 50.5681 68.5927 50.6428 69.2837 50.6428C69.3397 50.6428 69.3677 50.6988 69.3677 50.8108C69.3677 50.9229 69.3397 50.9789 69.2837 50.9789H66.1463L65.2779 51.0069C65.0165 51.0069 64.811 50.9696 64.6616 50.8949C64.5309 50.8202 64.3722 50.6801 64.1854 50.4747C64.0174 50.2693 63.7279 49.8864 63.317 49.3262C63.149 49.1208 62.9249 48.8313 62.6447 48.4578C62.3646 48.0656 61.9818 47.5521 61.4962 46.9171L57.2383 41.4547ZM62.3366 35.9362C62.9342 35.3013 63.233 34.825 63.233 34.5076C63.233 34.0407 62.6821 33.8073 61.5803 33.8073C61.5242 33.8073 61.4962 33.7512 61.4962 33.6392C61.4962 33.5271 61.5242 33.4711 61.5803 33.4711L62.8128 33.4991C63.5598 33.5365 64.2695 33.5552 64.9418 33.5552C65.6141 33.5552 66.305 33.5365 67.0147 33.4991L68.1072 33.4711C68.1632 33.4711 68.1912 33.5271 68.1912 33.6392C68.1912 33.7512 68.1632 33.8073 68.1072 33.8073C67.3228 33.8073 66.4731 34.0033 65.558 34.3955C64.643 34.7877 63.8026 35.3573 63.0369 36.1043L55.8377 43.2195L55.1374 43.1914L62.3366 35.9362Z" fill="#3D2116"/>
<path d="M85.4285 36.6925C85.4285 35.7588 85.2137 35.0491 84.7842 34.5636C84.3547 34.0594 83.7384 33.8073 82.9354 33.8073C82.8794 33.8073 82.8514 33.7512 82.8514 33.6392C82.8514 33.5271 82.8794 33.4711 82.9354 33.4711L84.196 33.4991C84.8683 33.5365 85.4005 33.5552 85.7927 33.5552C86.1288 33.5552 86.6144 33.5365 87.2493 33.4991L88.4539 33.4711C88.4912 33.4711 88.5099 33.5271 88.5099 33.6392C88.5099 33.7512 88.4912 33.8073 88.4539 33.8073C87.7069 33.8073 87.1373 34.05 86.7451 34.5356C86.3716 35.0211 86.1848 35.7401 86.1848 36.6925V44.6201C86.1848 46.7117 85.5686 48.3551 84.336 49.5503C83.1222 50.7455 81.4974 51.3431 79.4619 51.3431C78.0799 51.3431 76.866 51.0816 75.8202 50.5587C74.7744 50.0171 73.9621 49.2515 73.3831 48.2617C72.8042 47.2533 72.5148 46.0767 72.5148 44.7321V35.7401C72.5148 35.1799 72.4587 34.769 72.3467 34.5076C72.2346 34.2461 72.0199 34.0687 71.7024 33.9753C71.4036 33.8633 70.918 33.8073 70.2457 33.8073C70.1897 33.8073 70.1617 33.7512 70.1617 33.6392C70.1617 33.5271 70.1897 33.4711 70.2457 33.4711L71.6464 33.4991C72.4681 33.5365 73.1217 33.5552 73.6072 33.5552C74.1488 33.5552 74.8118 33.5365 75.5961 33.4991L76.9687 33.4711C77.0248 33.4711 77.0528 33.5271 77.0528 33.6392C77.0528 33.7512 77.0248 33.8073 76.9687 33.8073C76.3151 33.8073 75.8296 33.8633 75.5121 33.9753C75.2133 34.0874 75.0079 34.2835 74.8958 34.5636C74.7838 34.825 74.7277 35.2359 74.7277 35.7961V43.7517C74.7277 45.9553 75.204 47.6268 76.1564 48.7659C77.1275 49.8864 78.4814 50.4467 80.2182 50.4467C81.8429 50.4467 83.1128 49.9424 84.0279 48.934C84.9616 47.9069 85.4285 46.4782 85.4285 44.6481V36.6925Z" fill="#3D2116"/>
<path d="M97.7034 51.091C97.1245 51.091 96.4709 51.0629 95.7426 51.0069C95.4625 50.9882 95.117 50.9696 94.7061 50.9509C94.3139 50.9322 93.8657 50.9229 93.3615 50.9229L91.4006 50.9509C91.0458 50.9696 90.5603 50.9789 89.944 50.9789C89.9066 50.9789 89.888 50.9229 89.888 50.8108C89.888 50.6988 89.9066 50.6428 89.944 50.6428C90.6163 50.6428 91.1112 50.5961 91.4287 50.5027C91.7461 50.4093 91.9609 50.2319 92.0729 49.9705C92.2037 49.6903 92.269 49.2701 92.269 48.7099V35.7401C92.269 35.1799 92.213 34.769 92.101 34.5076C91.9889 34.2461 91.7741 34.0687 91.4567 33.9753C91.1579 33.8633 90.6723 33.8073 90 33.8073C89.944 33.8073 89.916 33.7512 89.916 33.6392C89.916 33.5271 89.944 33.4711 90 33.4711L91.4006 33.4991C92.2223 33.5365 92.876 33.5552 93.3615 33.5552C94.0525 33.5552 94.7621 33.5271 95.4905 33.4711C96.3869 33.4338 96.9938 33.4151 97.3113 33.4151C99.2348 33.4151 100.944 33.7886 102.438 34.5356C103.932 35.2826 105.089 36.3004 105.911 37.5889C106.733 38.8775 107.144 40.3248 107.144 41.9309C107.144 43.7424 106.714 45.3484 105.855 46.749C105.015 48.131 103.866 49.2048 102.41 49.9705C100.972 50.7175 99.4029 51.091 97.7034 51.091ZM97.4233 50.5867C98.8239 50.5867 100.066 50.2786 101.149 49.6623C102.232 49.0274 103.073 48.1123 103.67 46.9171C104.286 45.7032 104.595 44.2466 104.595 42.5472C104.595 40.9224 104.305 39.4564 103.726 38.1492C103.147 36.8233 102.326 35.7868 101.261 35.0398C100.215 34.2741 98.992 33.8913 97.5914 33.8913C96.7884 33.8913 96.1721 33.938 95.7426 34.0314C95.313 34.1247 94.9956 34.3115 94.7901 34.5916C94.5847 34.8531 94.482 35.2546 94.482 35.7961V48.4018C94.482 48.9433 94.5567 49.3729 94.7061 49.6903C94.8742 49.9891 95.1637 50.2132 95.5745 50.3626C96.004 50.512 96.6203 50.5867 97.4233 50.5867Z" fill="#3D2116"/>
<path d="M113.771 43.0514H121.39L121.586 43.6677H113.434L113.771 43.0514ZM127.917 50.6428C128.01 50.6428 128.057 50.6988 128.057 50.8108C128.057 50.9229 128.01 50.9789 127.917 50.9789C127.562 50.9789 127.011 50.9602 126.264 50.9229C125.48 50.8855 124.92 50.8669 124.583 50.8669C124.154 50.8669 123.622 50.8855 122.987 50.9229C122.352 50.9602 121.876 50.9789 121.558 50.9789C121.483 50.9789 121.446 50.9229 121.446 50.8108C121.446 50.6988 121.483 50.6428 121.558 50.6428C122.193 50.6428 122.651 50.5867 122.931 50.4747C123.211 50.344 123.351 50.1199 123.351 49.8024C123.351 49.4849 123.211 49.0461 122.931 48.4858L116.908 35.9642L117.804 34.6196L112.342 47.2813C112.08 47.9162 111.95 48.4391 111.95 48.85C111.95 49.4476 112.183 49.8958 112.65 50.1946C113.117 50.4934 113.789 50.6428 114.667 50.6428C114.76 50.6428 114.807 50.6988 114.807 50.8108C114.807 50.9229 114.76 50.9789 114.667 50.9789C114.331 50.9789 113.845 50.9602 113.21 50.9229C112.501 50.8855 111.884 50.8669 111.361 50.8669C110.876 50.8669 110.297 50.8855 109.625 50.9229C109.027 50.9602 108.542 50.9789 108.168 50.9789C108.093 50.9789 108.056 50.9229 108.056 50.8108C108.056 50.6988 108.093 50.6428 108.168 50.6428C108.691 50.6428 109.13 50.54 109.485 50.3346C109.858 50.1292 110.213 49.7744 110.549 49.2701C110.885 48.7659 111.268 48.0189 111.698 47.0292L117.664 33.275C117.683 33.219 117.748 33.191 117.86 33.191C117.972 33.1723 118.038 33.2003 118.056 33.275L124.779 47.1412C125.433 48.5045 125.975 49.4289 126.404 49.9144C126.852 50.4 127.357 50.6428 127.917 50.6428Z" fill="#3D2116"/>
<path d="M131.224 35.7401C131.224 35.1799 131.168 34.769 131.056 34.5076C130.944 34.2461 130.729 34.0687 130.412 33.9753C130.113 33.8633 129.627 33.8073 128.955 33.8073C128.899 33.8073 128.871 33.7512 128.871 33.6392C128.871 33.5271 128.899 33.4711 128.955 33.4711L130.355 33.4991C131.177 33.5365 131.831 33.5552 132.316 33.5552C132.839 33.5552 133.512 33.5365 134.333 33.4991L135.706 33.4711C135.743 33.4711 135.762 33.5271 135.762 33.6392C135.762 33.7512 135.743 33.8073 135.706 33.8073C135.052 33.8073 134.567 33.8633 134.249 33.9753C133.932 34.0874 133.717 34.2835 133.605 34.5636C133.493 34.825 133.437 35.2359 133.437 35.7961V48.7099C133.437 49.2888 133.484 49.709 133.577 49.9705C133.689 50.2319 133.894 50.4093 134.193 50.5027C134.511 50.5961 135.015 50.6428 135.706 50.6428C135.762 50.6428 135.79 50.6988 135.79 50.8108C135.79 50.9229 135.762 50.9789 135.706 50.9789C135.108 50.9789 134.641 50.9696 134.305 50.9509L132.316 50.9229L130.355 50.9509C130.001 50.9696 129.515 50.9789 128.899 50.9789C128.861 50.9789 128.843 50.9229 128.843 50.8108C128.843 50.6988 128.861 50.6428 128.899 50.6428C129.571 50.6428 130.066 50.5961 130.383 50.5027C130.701 50.4093 130.916 50.2319 131.028 49.9705C131.159 49.6903 131.224 49.2701 131.224 48.7099V35.7401ZM134.081 41.4547L135.762 39.998L139.908 45.4044C141.215 47.1599 142.214 48.4018 142.905 49.1301C143.596 49.8397 144.128 50.2693 144.502 50.4187C144.894 50.5681 145.436 50.6428 146.127 50.6428C146.183 50.6428 146.211 50.6988 146.211 50.8108C146.211 50.9229 146.183 50.9789 146.127 50.9789H142.989L142.121 51.0069C141.859 51.0069 141.654 50.9696 141.504 50.8949C141.374 50.8202 141.215 50.6801 141.028 50.4747C140.86 50.2693 140.571 49.8864 140.16 49.3262C139.992 49.1208 139.768 48.8313 139.488 48.4578C139.207 48.0656 138.825 47.5521 138.339 46.9171L134.081 41.4547ZM139.179 35.9362C139.777 35.3013 140.076 34.825 140.076 34.5076C140.076 34.0407 139.525 33.8073 138.423 33.8073C138.367 33.8073 138.339 33.7512 138.339 33.6392C138.339 33.5271 138.367 33.4711 138.423 33.4711L139.656 33.4991C140.403 33.5365 141.112 33.5552 141.785 33.5552C142.457 33.5552 143.148 33.5365 143.857 33.4991L144.95 33.4711C145.006 33.4711 145.034 33.5271 145.034 33.6392C145.034 33.7512 145.006 33.8073 144.95 33.8073C144.166 33.8073 143.316 34.0033 142.401 34.3955C141.486 34.7877 140.645 35.3573 139.88 36.1043L132.681 43.2195L131.98 43.1914L139.179 35.9362Z" fill="#3D2116"/>
<path d="M155.516 51.3151C153.779 51.3151 152.229 50.9135 150.866 50.1105C149.521 49.2888 148.475 48.187 147.728 46.805C147 45.4044 146.636 43.8824 146.636 42.239C146.636 40.3155 147.122 38.6721 148.093 37.3088C149.064 35.9269 150.306 34.8904 151.818 34.1994C153.35 33.5085 154.909 33.163 156.496 33.163C158.271 33.163 159.83 33.5832 161.174 34.4235C162.519 35.2452 163.546 36.3377 164.256 37.701C164.984 39.0643 165.348 40.5116 165.348 42.0429C165.348 43.7424 164.9 45.3017 164.004 46.721C163.107 48.1403 161.903 49.2608 160.39 50.0825C158.896 50.9042 157.271 51.3151 155.516 51.3151ZM156.496 50.6988C157.692 50.6988 158.765 50.3906 159.718 49.7744C160.67 49.1581 161.417 48.2617 161.959 47.0852C162.519 45.89 162.799 44.4707 162.799 42.8273C162.799 41.0905 162.491 39.5405 161.875 38.1772C161.277 36.8139 160.409 35.7495 159.27 34.9838C158.149 34.2181 156.842 33.8353 155.348 33.8353C153.406 33.8353 151.893 34.4982 150.81 35.8242C149.727 37.1314 149.185 38.9429 149.185 41.2586C149.185 43.0327 149.493 44.6388 150.11 46.0767C150.726 47.5147 151.585 48.6445 152.687 49.4662C153.807 50.2879 155.077 50.6988 156.496 50.6988Z" fill="#3D2116"/>
<path d="M184.766 33.4711C184.822 33.4711 184.85 33.5271 184.85 33.6392C184.85 33.7512 184.822 33.8073 184.766 33.8073C183.422 33.8073 182.413 34.657 181.741 36.3564L176.026 50.9509C176.008 51.0256 175.905 51.0629 175.718 51.0629C175.531 51.0629 175.429 51.0256 175.41 50.9509L168.379 35.7961C168.043 35.0865 167.697 34.5823 167.342 34.2835C167.006 33.966 166.586 33.8073 166.082 33.8073C166.026 33.8073 165.998 33.7512 165.998 33.6392C165.998 33.5271 166.026 33.4711 166.082 33.4711L166.95 33.4991C167.436 33.5365 167.893 33.5552 168.323 33.5552C169.331 33.5552 170.302 33.5365 171.236 33.4991C171.535 33.4805 171.918 33.4711 172.385 33.4711C172.441 33.4711 172.469 33.5271 172.469 33.6392C172.469 33.7512 172.441 33.8073 172.385 33.8073C171.227 33.8073 170.648 34.1621 170.648 34.8717C170.648 35.1705 170.741 35.5067 170.928 35.8802L176.671 48.3738L175.662 49.9985L181.069 36.2163C181.218 35.8055 181.293 35.46 181.293 35.1799C181.293 34.2648 180.583 33.8073 179.164 33.8073C179.108 33.8073 179.08 33.7512 179.08 33.6392C179.08 33.5271 179.108 33.4711 179.164 33.4711L180.424 33.4991C181.134 33.5365 181.75 33.5552 182.273 33.5552C182.665 33.5552 183.104 33.5365 183.59 33.4991L184.766 33.4711Z" fill="#3D2116"/>
<path d="M187.714 43.0514H195.333L195.529 43.6677H187.378L187.714 43.0514ZM201.86 50.6428C201.953 50.6428 202 50.6988 202 50.8108C202 50.9229 201.953 50.9789 201.86 50.9789C201.505 50.9789 200.954 50.9602 200.207 50.9229C199.423 50.8855 198.863 50.8669 198.526 50.8669C198.097 50.8669 197.565 50.8855 196.93 50.9229C196.295 50.9602 195.819 50.9789 195.501 50.9789C195.426 50.9789 195.389 50.9229 195.389 50.8108C195.389 50.6988 195.426 50.6428 195.501 50.6428C196.136 50.6428 196.594 50.5867 196.874 50.4747C197.154 50.344 197.294 50.1199 197.294 49.8024C197.294 49.4849 197.154 49.0461 196.874 48.4858L190.851 35.9642L191.747 34.6196L186.285 47.2813C186.024 47.9162 185.893 48.4391 185.893 48.85C185.893 49.4476 186.126 49.8958 186.593 50.1946C187.06 50.4934 187.732 50.6428 188.61 50.6428C188.703 50.6428 188.75 50.6988 188.75 50.8108C188.75 50.9229 188.703 50.9789 188.61 50.9789C188.274 50.9789 187.788 50.9602 187.153 50.9229C186.444 50.8855 185.827 50.8669 185.305 50.8669C184.819 50.8669 184.24 50.8855 183.568 50.9229C182.97 50.9602 182.485 50.9789 182.111 50.9789C182.036 50.9789 181.999 50.9229 181.999 50.8108C181.999 50.6988 182.036 50.6428 182.111 50.6428C182.634 50.6428 183.073 50.54 183.428 50.3346C183.801 50.1292 184.156 49.7744 184.492 49.2701C184.828 48.7659 185.211 48.0189 185.641 47.0292L191.607 33.275C191.626 33.219 191.691 33.191 191.803 33.191C191.916 33.1723 191.981 33.2003 192 33.275L198.723 47.1412C199.376 48.5045 199.918 49.4289 200.347 49.9144C200.795 50.4 201.3 50.6428 201.86 50.6428Z" fill="#3D2116"/>
</svg>
